<svg xmlns="http://www.w3.org/2000/svg" xmlns:xlink="http://www.w3.org/1999/xlink" aria-hidden="true" role="img" width="18" height="18" preserveAspectRatio="xMidYMid meet" viewBox="0 0 36 36"><path fill="black" d="M32 29H4a1 1 0 0 1 0-2h28a1 1 0 0 1 0 2Z" class="clr-i-outline clr-i-outline-path-1"/><path fill="black" d="M32 19H4a1 1 0 0 1 0-2h28a1 1 0 0 1 0 2Z" class="clr-i-outline clr-i-outline-path-2"/><path fill="black" d="M32 9H4a1 1 0 0 1 0-2h28a1 1 0 0 1 0 2Z" class="clr-i-outline clr-i-outline-path-3"/><path fill="none" d="M0 0h36v36H0z"/></svg>